# AST/ASF file generated using VICON BodyLanguage
# -----------------------------------------------
:version 1.10
:name VICON
:units
  mass 1.0
  length 0.45
  angle deg
:documentation
   .ast/.asf automatically generated from VICON data using
   VICON BodyBuilder and BodyLanguage model FoxedUp or BRILLIANT.MOD
:root
   order TX TY TZ RX RY RZ
   axis XYZ
   position 0 0 0  
   orientation 0 0 0 
:bonedata
  begin
     id 1 
     name lhipjoint
     direction 0.611804 -0.747784 0.257906 
     length 2.29243 
     axis 0 0 0  XYZ
  end
  begin
     id 2 
     name lfemur
     direction 0.34202 -0.939693 0  
     length 7.31159  
     axis 0 0 20  XYZ
    dof rx ry rz
    limits (-160.0 20.0)
           (-70.0 70.0)
           (-60.0 70.0)
  end
  begin
     id 3 
     name ltibia
     direction 0.34202 -0.939693 0   
     length 7.33391   
     axis 0 0 20   XYZ
    dof rx
    limits (-10.0 170.0)
  end
  begin
     id 4 
     name lfoot
     direction 0.122263 -0.335914 0.933924   
     length 1.76083   
     axis -90 7.62852e-016 20   XYZ
    dof rx rz
    limits (-45.0 90.0)
           (-70.0 20.0)
  end
  begin
     id 5 
     name ltoes
     direction 1.53533e-011 -4.2177e-011 1   
     length 0.879206   
     axis -90 7.62852e-016 20   XYZ
    dof rx
    limits (-90.0 20.0)
  end
  begin
     id 6 
     name rhipjoint
     direction -0.646469 -0.721248 0.248754   
     length 2.37677  
     axis 0 0 0  XYZ 
  end
  begin
     id 7 
     name rfemur
     direction -0.34202 -0.939693 0   
     length 7.18623   
     axis 0 0 -20   XYZ
    dof rx ry rz
    limits (-160.0 20.0)
           (-70.0 70.0)
           (-70.0 60.0)
  end
  begin
     id 8 
     name rtibia
     direction -0.34202 -0.939693 0   
     length 7.36567   
     axis 0 0 -20   XYZ
    dof rx
    limits (-10.0 170.0)
 end
 begin
     id 9 
     name rfoot
     direction -0.126681 -0.348054 0.928876   
     length 1.71902  
     axis -90 -7.62852e-016 -20   XYZ
    dof rx rz
    limits (-45.0 90.0)
           (-20.0 70.0)
  end
  begin
     id 10 
     name rtoes
     direction -1.53551e-011 -4.21898e-011 1   
     length 0.857792   
     axis -90 -7.62852e-016 -20   XYZ
    dof rx
    limits (-90.0 20.0)
  end
  begin
     id 11 
     name lowerback
     direction 0.0106509 0.999778 0.0181844   
     length 2.07668   
     axis 0 0 0   XYZ
    dof rx ry rz
    limits (-20.0 45.0)
           (-30.0 30.0)
           (-30.0 30.0)
  end
  begin
     id 12 
     name upperback
     direction -0.00456018 0.999989 -0.000590935   
     length 2.08011   
     axis 0 0 0   XYZ
    dof rx ry rz
    limits (-20.0 45.0)
           (-30.0 30.0)
           (-30.0 30.0)
  end
  begin
     id 13 
     name thorax
     direction -0.00910382 0.999916 -0.00923765   
     length 2.07397   
     axis 0 0 0   XYZ
    dof rx ry rz
    limits (-20.0 45.0)
           (-30.0 30.0)
           (-30.0 30.0)
  end
  begin
     id 14 
     name lowerneck
     direction 0.00171967 0.99778 0.0665733   
     length 1.67556   
     axis 0 0 0   XYZ
    dof rx ry rz
    limits (-20.0 45.0)
           (-30.0 30.0)
           (-30.0 30.0)
  end
  begin
     id 15 
     name upperneck
     direction -0.0143166 0.991302 -0.130828   
     length 1.68462   
     axis 0 0 0   XYZ
    dof rx ry rz
    limits (-20.0 45.0)
           (-30.0 30.0)
           (-30.0 30.0)
  end
  begin
     id 16
     name head
     direction -0.00606378 0.998665 -0.0512995  
     length 1.69269  
     axis 0 0 0   XYZ
    dof rx ry rz
    limits (-20.0 45.0)
           (-30.0 30.0)
           (-30.0 30.0)
  end
  begin
     id 17 
     name lclavicle
     direction 0.9638 0.179341 0.197297  
     length 4.12888  
     axis 0 0 0   XYZ
    dof ry rz
    limits (-20.0 10.0)
           (0.0 20.0)
  end
  begin
     id 18 
     name lhumerus
     direction 1 -4.48972e-011 -2.47351e-027   
     length 5.01834   
     axis -180 -30 -90   XYZ
    dof rx ry rz
    limits (-60.0 90.0)
           (-90.0 90.0)
           (-90.0 90.0)
  end
  begin
     id 19
     name lradius
     direction 1 -4.48965e-011 1.51591e-026   
     length 3.4869   
     axis -180 -30 -90   XYZ
    dof rx
    limits (-10.0 170.0)
  end
  begin
     id 20
     name lwrist
     direction 1 -4.48957e-011 2.70032e-026   
     length 1.74345   
     axis -1.81515e-014 90 90   XYZ
    dof ry
    limits (-180.0 0.0)
 end
  begin
     id 21 
     name lhand
     direction 1 -4.48951e-011 5.40064e-026   
     length 0.76799   
     axis -3.44607e-014 90 90   XYZ
    dof rx rz
    limits (-90.0 90.0)
           (-45.0 45.0)
  end
  begin
     id 22 
     name lfingers
     direction 1 -4.48971e-011 1.08013e-025   
     length 0.619174   
     axis -6.89214e-014 90 90   XYZ
    dof rx
    limits (0.0 90.0)
  end
  begin
     id 23
     name lthumb
     direction 0.707107 -6.34931e-011 0.707107   
     length 0.889013   
     axis -90 45 2.85299e-015   XYZ
    dof rx rz
    limits (-45.0 45.0)
           (-45.0 45.0)
  end
  begin
     id 24 
     name rclavicle
     direction -0.961409 0.252588 0.109054   
     length 4.04305  
     axis 0 0 0   XYZ 
    dof ry rz
    limits (-10.0 20.0)
           (-20.0 0.0)
  end
  begin
     id 25 
     name rhumerus
     direction -1 -4.4897e-011 1.33872e-017  
     length 4.70164   
     axis -180 30 90   XYZ
    dof rx ry rz
    limits (-90.0 60.0)
           (-90.0 90.0)
           (-90.0 90.0)
  end
  begin
     id 26 
     name rradius
     direction -1 -4.48954e-011 1.83844e-026   
     length 3.49911   
     axis -180 30 90   XYZ
    dof rx
    limits (-10.0 170.0)
  end
  begin
     id 27 
     name rwrist
     direction -1 -4.49008e-011 2.70032e-026   
     length 1.74955   
     axis -1.81515e-014 -90 -90   XYZ
    dof ry
    limits (-180.0 0.0)
  end
  begin
     id 28
     name rhand
     direction -1 -4.48916e-011 5.40064e-026   
     length 0.739335   
     axis -3.44607e-014 -90 -90   XYZ
    dof rx rz
    limits (-90.0 90.0)
           (-45.0 45.0)
  end
  begin
     id 29
     name rfingers
     direction -1 -4.48987e-011 1.08013e-025   
     length 0.596071   
     axis -6.89214e-014 -90 -90   XYZ
    dof rx
    limits (0.0 90.0)
  end
  begin
     id 30
     name rthumb
     direction -0.707107 -6.34935e-011 0.707107   
     length 0.855843   
     axis -90 -45 -2.85299e-015   XYZ
    dof rx rz
    limits (-45.0 45.0)
           (-45.0 45.0)
  end
:hierarchy
  begin
    root lhipjoint rhipjoint lowerback
    lhipjoint lfemur
    lfemur ltibia
    ltibia lfoot
    lfoot ltoes
    rhipjoint rfemur
    rfemur rtibia
    rtibia rfoot
    rfoot rtoes
    lowerback upperback
    upperback thorax
    thorax lowerneck lclavicle rclavicle
    lowerneck upperneck
    upperneck head
    lclavicle lhumerus
    lhumerus lradius
    lradius lwrist
    lwrist lhand lthumb
    lhand lfingers
    rclavicle rhumerus
    rhumerus rradius
    rradius rwrist
    rwrist rhand rthumb
    rhand rfingers
  end

#!OML:ASF I:\salsa\salsa 7_09\Patient 1\Session 1\dancermale.ASF
:FULLY-SPECIFIED
:DEGREES
720
root 2.19691 16.8518 2.28301 551.893 78.19 903.815
lowerback -3.19866 0.855772 6.44975
upperback 0.766915 0.921313 -1.86211
thorax 2.72738 0.581707 -5.51243
lowerneck -8.24514 -16.0448 -0.615176
upperneck 9.37885 41.8865 6.11365
head 210.233 -222.344 -359.952
rclavicle -2.71838e-014 2.38542e-015
rhumerus -36.7115 25.1422 -97.6011
rradius 110.099
rwrist 19.4009
rhand -31.8029 17.1185
rfingers 7.12502
rthumb -5.05845 -12.8011
lclavicle -2.71838e-014 2.38542e-015
lhumerus -49.7096 -33.2887 111.199
lradius 98.2771
lwrist 30.1111
lhand -15.7789 48.5629
lfingers 7.12502
lthumb 10.4134 798.285
rfemur -16.7484 -6.66817 26.7504
rtibia 42.4118
rfoot -22.583 -16.7978
rtoes 1.14768
lfemur -42.7759 10.1557 -30.1394
ltibia 42.6358
lfoot -7.5445 -7.78524
ltoes -17.1525
721
root 2.0563 16.8779 2.29634 552.504 78.3616 904.789
lowerback -2.6994 1.17887 6.0538
upperback 0.986776 1.38338 -1.40739
thorax 2.71775 0.806853 -4.7886
lowerneck -8.03881 -16.1899 -1.00226
upperneck 9.37945 41.5887 6.1877
head 210.24 -223.382 -359.962
rclavicle 2.9271e-014 -2.5842e-015
rhumerus -35.6277 25.0982 -99.0783
rradius 109.822
rwrist 19.7512
rhand -31.502 16.9728
rfingers 7.12502
rthumb -4.76792 -12.9536
lclavicle 2.9271e-014 -2.5842e-015
lhumerus -51.2632 -32.0125 110.122
lradius 99.1687
lwrist 30.2431
lhand -15.7146 48.6926
lfingers 7.12502
lthumb 10.4755 798.412
rfemur -15.4027 -5.41254 26.8578
rtibia 39.831
rfoot -23.3799 -17.207
rtoes -0.974538
lfemur -42.9212 9.42387 -28.0546
ltibia 46.671
lfoot -10.0081 -3.43447
ltoes -14.2342
722
root 1.91971 16.9036 2.30417 553.132 78.3478 905.798
lowerback -2.27031 1.50065 5.64035
upperback 1.23112 1.83679 -0.872349
thorax 2.75427 1.02815 -3.97825
lowerneck -7.80827 -16.3202 -1.45537
upperneck 9.43778 41.3905 6.35396
head 210.32 -224.831 -360.01
rclavicle 3.00972e-015 1.28216e-014
rhumerus -34.7121 25.1075 -100.394
rradius 109.601
rwrist 20.0056
rhand -31.3656 17.2058
rfingers 7.12502
rthumb -4.63615 -12.7235
lclavicle 3.00972e-015 1.28216e-014
lhumerus -52.4927 -31.3152 109.08
lradius 100.093
lwrist 30.782
lhand -15.3403 49.0664
lfingers 7.12502
lthumb 10.8366 798.767
rfemur -14.2359 -4.46509 26.8653
rtibia 37.6467
rfoot -23.7107 -17.1436
rtoes -2.11776
lfemur -42.862 8.4886 -25.8475
ltibia 50.7011
lfoot -10.8576 -0.443809
ltoes -11.2256
723
root 1.78333 16.9215 2.30266 552.146 78.1754 905.141
lowerback -1.82472 1.71583 4.90851
upperback 1.53188 2.15704 -0.334453
thorax 2.79849 1.17766 -3.00046
lowerneck -7.73954 -16.645 -1.93696
upperneck 8.87334 39.9318 5.8572
head 209.909 -224.925 -359.741
rclavicle 1.98785e-015 6.75868e-015
rhumerus -33.855 25.4235 -101.515
rradius 109.326
rwrist 20.2127
rhand -31.3151 17.2885
rfingers 7.12502
rthumb -4.58739 -12.6418
lclavicle 1.98785e-015 6.75868e-015
lhumerus -53.297 -30.9023 107.954
lradius 101.056
lwrist 31.3808
lhand -15.2707 48.9673
lfingers 7.12502
lthumb 10.9036 798.664
rfemur -13.3063 -4.02381 26.4159
rtibia 35.8003
rfoot -23.7934 -16.916
rtoes -3.84736
lfemur -42.653 7.08697 -23.9314
ltibia 54.6952
lfoot -10.5617 0.858537
ltoes -5.67872
724
root 1.64634 16.9365 2.29499 550.986 77.8579 904.127
lowerback -1.57789 1.94104 4.24855
upperback 1.70321 2.47871 0.131881
thorax 2.81339 1.32496 -2.1397
lowerneck -7.4676 -16.8646 -2.468
upperneck 8.63599 38.9876 5.73185
head 209.625 -225.771 -359.793
rclavicle -1.18774e-014 1.59028e-014
rhumerus -33.484 25.5524 -102.739
rradius 109.088
rwrist 20.5327
rhand -31.1509 17.2192
rfingers 7.12502
rthumb -4.42883 -12.7145
lclavicle -1.18774e-014 1.59028e-014
lhumerus -54.1316 -30.8338 106.893
lradius 102.088
lwrist 31.8104
lhand -15.1201 49.1923
lfingers 7.12502
lthumb 11.0489 798.881
rfemur -12.6554 -4.00841 25.8936
rtibia 34.0641
rfoot -23.6852 -16.7889
rtoes -6.14831
lfemur -42.562 5.508 -22.1496
ltibia 58.5784
lfoot -9.80475 1.07702
ltoes 0.580794
725
root 1.51362 16.9567 2.279 551.043 77.4694 904.109
lowerback -1.58282 2.20479 3.99269
upperback 1.7236 2.83074 0.553107
thorax 2.82677 1.49266 -1.54685
lowerneck -7.17347 -17.0759 -3.01695
upperneck 8.48822 38.2766 5.70935
head 209.54 -227.102 -359.748
rclavicle 6.85807e-015 -9.54166e-015
rhumerus -33.6532 25.54 -104.103
rradius 108.966
rwrist 20.7164
rhand -31.0064 17.2787
rfingers 7.12502
rthumb -4.28927 -12.6579
lclavicle 6.85807e-015 -9.54166e-015
lhumerus -54.8681 -31.1475 105.777
lradius 103.08
lwrist 32.136
lhand -15.3341 49.1001
lfingers 7.12502
lthumb 10.8425 798.8
rfemur -12.2661 -4.44385 25.6155
rtibia 32.3781
rfoot -23.4356 -16.5179
rtoes -7.60248
lfemur -42.5317 4.11226 -20.2576
ltibia 62.0929
lfoot -9.38615 0.822458
ltoes 4.09642
726
root 1.3941 16.977 2.25285 552.501 77.0988 905.146
lowerback -1.98438 2.50746 4.04427
upperback 1.55918 3.21044 0.968036
thorax 2.88396 1.67818 -1.11749
lowerneck -6.87616 -17.3622 -3.46786
upperneck 8.29613 37.4468 5.62057
head 209.485 -228.201 -359.547
rclavicle 5.46658e-014 7.95139e-016
rhumerus -34.1905 25.4765 -105.457
rradius 108.83
rwrist 20.6907
rhand -31.1648 17.687
rfingers 7.12502
rthumb -4.44232 -12.2464
lclavicle 5.46658e-014 7.95139e-016
lhumerus -55.5564 -31.7614 104.602
lradius 104.331
lwrist 32.3453
lhand -14.7323 48.8749
lfingers 7.12502
lthumb 11.4229 798.544
rfemur -12.3367 -4.98701 25.6412
rtibia 30.8808
rfoot -23.1254 -16.102
rtoes -8.05978
lfemur -42.4887 2.9444 -18.2022
ltibia 64.9449
lfoot -9.41295 0.625128
ltoes 5.74193
